Coordinates
version=1
nRows=19
nColumns=33
inDegrees=yes

Units are S.I. units (second, meters, Newtons, ...)
Angles are in degrees.

endheader
time	ground_thorax_rot_x	ground_thorax_rot_y	ground_thorax_rot_z	ground_thorax_tx	ground_thorax_ty	ground_thorax_tz	clav_prot_r	clav_elev_r	scapula_abduction_r	scapula_elevation_r	scapula_upward_rot_r	scapula_winging_r	shoulder_elv_r	plane_of_elev_r	axial_rot_r	elbow_flexion_r	pro_sup_r	wrist_flex_r	wrist_dev_r	clav_prot_l	clav_elev_l	scapula_abduction_l	scapula_elevation_l	scapula_upward_rot_l	scapula_winging_l	shoulder_elv_l	plane_of_elev_l	axial_rot_l	elbow_flexion_l	pro_sup_l	wrist_flex_l	wrist_dev_l
      4.86000000	     -2.58407367	      1.39270880	     13.48299384	     -0.11853530	      1.02979052	      0.00757455	     10.12928950	    -13.99699515	     18.99201057	     -7.56379596	      2.57335208	     -2.57494393	    -23.08655746	    -68.67803604	    111.66605610	    -76.90467110	   -169.10702250	     16.68171654	     -3.17808327	     15.84889423	     -6.52277881	    -22.60418938	    -14.23986474	    -32.97283248	      3.96460206	     58.42297435	    -15.91892752	      8.85302542	     53.78257615	     14.15876280	     17.37886635	    -11.19783574
      4.87000000	     -2.39475424	      1.21520300	     13.61061358	     -0.11896009	      1.02970710	      0.00756371	      9.87612516	    -13.49324760	     18.34770938	     -6.93016575	      2.12339667	     -2.57387678	    -23.87890434	    -69.58291390	    111.67142632	    -78.03251054	   -169.02971723	     17.35119418	     -3.39261846	     15.55341456	     -5.97559728	    -22.15127543	    -14.95932322	    -33.39437028	      3.70112241	     58.14662737	    -16.65017268	      8.89487128	     55.67584047	     13.82978984	     17.21942074	    -11.47145565
      4.88000000	     -2.23927750	      1.10735506	     13.63493440	     -0.11945086	      1.02957619	      0.00778490	      9.67917223	    -12.97754622	     17.71258028	     -6.21481918	      1.50528383	     -2.57245940	    -24.58157760	    -70.27642742	    111.58226717	    -79.30863712	   -168.93546535	     18.10637644	     -3.67580057	     15.30237824	     -5.51031726	    -21.76095181	    -15.56419624	    -33.73316987	      3.46708742	     58.04036928	    -17.46364706	      8.80641987	     57.45898570	     13.59527242	     17.07411641	    -11.78191691
      4.89000000	     -2.07119106	      1.07397092	     13.58464689	     -0.11945552	      1.03079565	      0.00788644	      9.34343053	    -13.37089901	     16.69701198	     -6.20483122	      0.57211142	     -1.96771130	    -26.18248743	    -71.41499188	    109.87882676	    -79.88386960	   -168.24110164	     21.68431460	     -5.97305947	     14.53778948	     -5.53709353	    -20.37515443	    -15.39724215	    -33.33866415	      2.83755973	     58.40365306	    -19.42141018	      7.32686470	     59.33856572	     13.30933541	     16.11781774	    -12.21190119
      4.90000000	     -1.89487026	      0.84965677	     13.72172366	     -0.11980709	      1.03068027	      0.00788321	      9.06748436	    -12.77572420	     16.09024701	     -5.54377835	      0.27614622	     -2.00748128	    -27.08317299	    -72.33276520	    109.88755776	    -80.58848446	   -167.97998464	     22.40039629	     -6.18211018	     14.22114457	     -4.89093576	    -19.86549143	    -16.19533675	    -33.71662337	      2.54103005	     58.05522064	    -20.20567141	      7.37448530	     61.10489241	     13.11308115	     15.92906723	    -12.59968458
      4.91000000	     -1.79778821	      0.66526881	     13.37789178	     -0.11945332	      1.03156195	      0.00800060	      8.70979399	    -12.74135364	     15.48787702	     -5.52138426	      0.27970726	     -1.78573163	    -29.51338191	    -73.21212038	    108.00756343	    -80.56548972	   -166.31134269	     26.68691099	     -8.35414940	     13.28927247	     -4.52269891	    -18.12625759	    -16.24640349	    -32.99339326	      1.81580312	     58.29761077	    -21.96490744	      6.05169025	     62.76009193	     13.24254130	     14.54737605	    -13.78966545
      4.92000000	     -1.53114061	      0.53975134	     13.61190190	     -0.11994128	      1.03133083	      0.00810411	      8.54202667	    -12.00455100	     14.93224379	     -4.62053853	     -0.26973039	     -1.89181264	    -30.28854134	    -73.91254016	    107.82277323	    -81.17825439	   -166.04611568	     27.25521020	     -8.50988001	     13.03296651	     -3.97412231	    -17.71470574	    -16.99678059	    -33.44916466	      1.54587514	     58.01808661	    -22.82051025	      5.86672338	     64.36382087	     13.13025338	     14.42353779	    -14.20319791
      4.93000000	     -1.36221474	      0.28636602	     13.38086698	     -0.11964201	      1.03210159	      0.00826242	      8.36212179	    -11.66768714	     14.73367698	     -4.41540555	     -0.02630988	     -1.96911152	    -33.18590606	    -74.47407872	    105.46790056	    -80.64171332	   -163.80048818	     31.72990491	    -10.45058776	     12.07752819	     -3.65150800	    -15.95867407	    -17.17714275	    -33.07914583	      0.78041252	     58.43207820	    -24.48364122	      4.67477005	     65.80458617	     13.50628144	     12.74602448	    -15.92904275
      4.94000000	     -1.03587954	      0.14592275	     13.36737063	     -0.12010374	      1.03166384	      0.00852005	      8.53129531	    -10.72691810	     15.04164068	     -3.59376760	      0.07868681	     -2.49269193	    -35.94475156	    -74.72075136	    103.31315068	    -80.67952897	   -162.20310257	     33.92169796	    -11.41596530	     11.50814686	     -3.06795132	    -14.91642279	    -17.78181086	    -33.11224371	      0.28691256	     58.62418509	    -25.53737573	      3.45935286	     67.14229932	     13.55353243	     12.02814459	    -16.96201066
      4.95000000	     -0.84484600	     -0.07458289	     13.60120273	     -0.12054370	      1.03165801	      0.00848009	      8.36087039	    -10.11320725	     14.51186378	     -2.84392164	     -0.37701514	     -2.51483703	    -36.71638785	    -75.38566200	    103.13911966	    -80.74464273	   -161.92454678	     34.44151818	    -11.54835051	     11.26813123	     -2.54041958	    -14.52233925	    -18.55546065	    -33.63973691	     -0.00660125	     58.38022451	    -26.56920031	      3.46013819	     68.56621636	     13.46775912	     11.83252142	    -17.39866200
      4.96000000	     -0.64541731	     -0.07207651	     13.38029872	     -0.12035035	      1.03202957	      0.00882236	      8.07565997	     -9.55220975	     14.07111586	     -2.40555722	     -0.21221551	     -2.56884106	    -39.13620364	    -75.61633861	    101.00285910	    -79.99733295	   -159.72623199	     38.86082847	    -13.04985876	     10.56306514	     -2.18990594	    -13.19840004	    -18.82236242	    -33.40849258	     -0.57317287	     58.90215637	    -27.89322321	      2.02929811	     69.47458670	     14.02988007	     10.08311043	    -19.64080668
      4.97000000	     -0.56142664	     -0.31075336	     13.49739361	     -0.12069716	      1.03203361	      0.00885824	      7.91697268	     -9.01070342	     13.58559653	     -1.74705970	     -0.59919399	     -2.56386438	    -39.73884549	    -76.05835511	    100.94387776	    -79.87491508	   -159.49101971	     39.15128249	    -13.10042303	     10.35473091	     -1.65360321	    -12.83977357	    -19.57372926	    -33.86239454	     -0.85115976	     58.65724557	    -28.91417435	      2.20396460	     70.63336406	     13.93212084	      9.94441285	    -19.98397825
      4.98000000	     -0.48744729	     -0.65846461	     13.31654167	     -0.12066515	      1.03255761	      0.00865523	      7.75212909	     -8.64360827	     13.46038362	     -1.57781320	     -0.20816012	     -2.66934366	    -43.65808911	    -76.67219370	     99.39736492	    -79.43351659	   -154.00718509	     40.48994974	    -23.25719221	      9.55046413	     -1.05783930	    -11.24290889	    -19.93275213	    -33.31220046	     -1.49656325	     58.75304803	    -30.37050213	      1.09949642	     71.16223232	     14.56149000	      8.15151962	    -22.78543676
      4.99000000	     -0.11543498	     -0.80807166	     13.29833891	     -0.12073480	      1.03237443	      0.00909912	      7.84912259	     -7.58662391	     13.70060278	     -0.75470995	      0.12027993	     -3.14526856	    -45.73748840	    -76.51233583	     97.14803834	    -79.05345327	   -149.18228947	     41.05406798	    -22.65687585	      9.05423442	     -0.74800992	    -10.29271712	    -20.21945559	    -33.21452923	     -1.90338926	     58.71728161	    -31.63206556	      0.15722070	     71.80467582	     14.94106900	      7.31473200	    -24.44147859
      5.00000000	      0.29109612	     -0.98040739	     13.55823201	     -0.12110967	      1.03223638	      0.00924339	      7.92501890	     -6.79776060	     13.74127132	     -0.01876784	      0.07724141	     -3.40802756	    -47.88991617	    -76.79447392	     95.60387717	    -78.42348693	   -148.21340921	     42.39493525	    -24.99999983	      8.64095270	     -0.29444881	     -9.50051821	    -20.76436013	    -33.36346560	     -2.31167861	     58.52826158	    -32.58233348	     -0.71917004	     72.16438708	     15.43428655	      6.54325250	    -24.99999983
      5.01000000	      0.21165378	     -1.23943133	     13.56294496	     -0.12145130	      1.03231175	      0.00925501	      7.82026104	     -6.48618706	     13.43124909	      0.35163377	     -0.12839489	     -3.37121817	    -48.39825475	    -76.98737804	     95.48990594	    -77.81765499	   -147.78226220	     42.62067005	    -24.95237682	      8.49375310	      0.15191077	     -9.23110827	    -21.41372515	    -33.76682235	     -2.55040444	     58.41202822	    -33.68394513	     -0.61775202	     72.90291206	     15.46000668	      6.33325635	    -24.99999983
      5.02000000	      0.43367362	     -1.32629057	     13.27647860	     -0.12194720	      1.03266632	      0.00919206	      7.73470080	     -6.22515372	     13.15225801	      0.68251608	     -0.34615937	     -3.32606554	    -48.42676727	    -77.10030607	     95.21790872	    -77.23810076	   -147.61379372	     42.70450780	    -24.99999983	      8.39945560	      0.38637696	     -9.07981911	    -21.82252961	    -34.11298390	     -2.70785140	     58.14995621	    -34.22542027	     -0.78068520	     73.16974407	     15.51900871	      6.25670738	    -24.99999983
      5.03000000	      0.33973631	     -1.39903461	     13.26309930	     -0.12126356	      1.03254888	      0.00965683	      7.47585160	     -5.38825435	     13.11863983	      0.98052045	      0.73281989	     -3.64434621	    -51.33140859	    -76.71182069	     92.70530180	    -75.53910999	   -142.88308551	     47.35347065	    -24.99999983	      7.68284211	      1.00350824	     -7.56696169	    -22.17141813	    -33.47162748	     -3.28230785	     58.62847475	    -35.78082845	     -2.46833503	     73.69647462	     17.76614761	      3.12693561	    -24.99999983
      5.04000000	      0.52234566	     -1.53956357	     13.48604116	     -0.12172730	      1.03249216	      0.00980939	      7.47517087	     -4.99076980	     12.87262093	      1.51535064	      0.32901287	     -3.62495201	    -51.81623388	    -76.91571746	     92.35065031	    -74.99660986	   -142.83188707	     47.42114601	    -24.99999983	      7.57356522	      1.27740945	     -7.38440210	    -22.65590763	    -33.88364149	     -3.47642348	     58.39650527	    -36.66098180	     -2.79730689	     73.69701835	     17.92344835	      2.96220846	    -24.99999983
